<svg xmlns="http://www.w3.org/2000/svg" width="13.818" height="14.407" viewBox="0 0 13.818 14.407">
  <g id="image_4_" data-name="image (4)" transform="translate(0 0)">
    <path id="Path_88" data-name="Path 88" d="M22.708-511.933a.831.831,0,0,0-.2.19c-.085.126-.088.138-.1.518l-.012.392-.969.009a6.514,6.514,0,0,0-1.06.047.658.658,0,0,0-.31.313c-.053.114-.056.343-.056,6.232,0,4.745.009,6.142.035,6.235a.617.617,0,0,0,.363.363c.176.053,12.846.053,13.021,0a.617.617,0,0,0,.363-.363c.026-.094.035-1.49.035-6.235,0-5.89,0-6.118-.056-6.232a.658.658,0,0,0-.31-.313,6.514,6.514,0,0,0-1.06-.047l-.969-.009-.012-.392c-.009-.381-.012-.392-.1-.518a.831.831,0,0,0-.2-.19c-.108-.061-.155-.067-.594-.067-.506,0-.577.015-.732.158s-.181.249-.181.647v.366H24.216v-.366c0-.4-.032-.515-.182-.647S23.809-512,23.3-512C22.863-512,22.816-511.994,22.708-511.933Zm.893,1.426v.878h-.585v-1.756H23.6Zm7.2,0v.878h-.585v-1.756H30.8Zm-8.4.679c0,.413.038.533.214.688.146.129.266.155.726.155.366,0,.407-.006.545-.073a.613.613,0,0,0,.231-.2c.082-.117.085-.135.094-.527l.012-.4H29.6l.012.4c.009.392.012.41.094.527a.613.613,0,0,0,.231.2c.138.067.179.073.545.073.46,0,.58-.026.726-.155.176-.155.214-.275.214-.688v-.357H33.2v2.078H20.615v-2.078H22.4Zm10.8,6.976v4.64H20.615v-9.28H33.2Z" transform="translate(-20 512)"/>
    <path id="Path_89" data-name="Path 89" d="M102-314.531v3.469h9.017V-318H102Zm2.108-2.093v.732h-1.493v-1.464h1.493Zm2.078,0v.732h-1.464v-1.464h1.464Zm2.108,0v.732H106.83v-1.464h1.464Zm2.108,0v.732h-1.493v-1.464H110.4Zm-6.294,2.078v.732h-1.493v-1.464h1.493Zm2.078,0v.732h-1.464v-1.464h1.464Zm2.108,0v.732H106.83v-1.464h1.464Zm2.108,0v.732h-1.493v-1.464H110.4Zm-6.294,2.108v.732h-1.493v-1.464h1.493Zm2.078,0v.732h-1.464v-1.464h1.464Zm2.108,0v.732H106.83v-1.464h1.464Zm2.108,0v.732h-1.493v-1.464H110.4Z" transform="translate(-99.6 323.679)"/>
  </g>
</svg>
