<svg id="Chat" xmlns="http://www.w3.org/2000/svg" width="52" height="52" viewBox="0 0 52 52">
  <circle id="Ellipse_2" data-name="Ellipse 2" cx="26" cy="26" r="26" fill="#f1c933"/>
  <g id="image" transform="translate(-11.794 481.348)">
    <path id="Path_71" data-name="Path 71" d="M36.156-470.822c-6.58.573-12.138,4.591-13.975,10.108a9.569,9.569,0,0,0-.587,3.936,9.411,9.411,0,0,0,.525,3.756,14.113,14.113,0,0,0,5.1,6.953c.463.345.614.5.614.614a10.431,10.431,0,0,1-.559,2.016,14.719,14.719,0,0,1-1.892,3.259l-.269.373,1.45-.041a10.03,10.03,0,0,0,2.03-.173,10.226,10.226,0,0,0,4.723-2.6l.47-.47.835.152a15.471,15.471,0,0,0,3.224.283,17.152,17.152,0,0,0,12.041-4.688,13.324,13.324,0,0,0,3.942-7.188,17.371,17.371,0,0,0,.11-3.708A14.215,14.215,0,0,0,45.684-469.1,18.408,18.408,0,0,0,36.156-470.822Zm3.887,1.478a15.544,15.544,0,0,1,9.728,5.1,12.052,12.052,0,0,1,2.651,5.358,13.413,13.413,0,0,1,.035,4.039,12.021,12.021,0,0,1-3.238,6.159,13.865,13.865,0,0,1-4.226,3.031,15.91,15.91,0,0,1-6.7,1.595,15.218,15.218,0,0,1-3.977-.331l-1-.2-.587.573a10.557,10.557,0,0,1-3.328,2.127,12.448,12.448,0,0,1-1.567.449c0-.014.214-.47.476-1.015a13.465,13.465,0,0,0,.621-1.478,9.69,9.69,0,0,0,.352-2.044v-.331l-.608-.414a13.435,13.435,0,0,1-4.743-5.42,15.017,15.017,0,0,1-.842-2.631,14.132,14.132,0,0,1,.041-4.108c1.015-4.736,4.868-8.555,10.087-9.984A17.216,17.216,0,0,1,40.043-469.344Z" transform="translate(0 0)" fill="#166bc8"/>
  </g>
</svg>
