<svg xmlns="http://www.w3.org/2000/svg" width="11.829" height="12.734" viewBox="0 0 11.829 12.734">
  <g id="person" transform="translate(-50.8 481.589)">
    <path id="Path_83" data-name="Path 83" d="M56.339-481.572a3.159,3.159,0,0,0-.88.257,2.97,2.97,0,0,0-1.647,2.05,22.255,22.255,0,0,0-.037,2.768,2.933,2.933,0,0,0,.923,1.8l.231.219v1.35l-.127.112a4.361,4.361,0,0,1-1.084.548c-1.523.649-2.217,1.179-2.624,2.007a2.409,2.409,0,0,0-.28,1.179l-.014.427H62.629v-.34a2.694,2.694,0,0,0-.848-2.039,6.014,6.014,0,0,0-2.076-1.24,3.566,3.566,0,0,1-1.162-.614,2.527,2.527,0,0,1-.037-.718v-.672l.231-.219a2.918,2.918,0,0,0,.923-1.8,22.256,22.256,0,0,0-.037-2.768,2.964,2.964,0,0,0-2.168-2.235A3.543,3.543,0,0,0,56.339-481.572Zm.859.652a2.323,2.323,0,0,1,1.8,1.759,6.266,6.266,0,0,1,.049,1.505,4.764,4.764,0,0,1-.078,1.462,2.485,2.485,0,0,1-.954,1.286l-.147.1.009.908c.012.978.009.96.176,1.2.159.225.484.415,1.361.787a4.594,4.594,0,0,1,2.209,1.465,2.368,2.368,0,0,1,.3.755c.012.055.026.124.032.15.014.049-.248.052-5.237.052H51.469l.017-.081a2.515,2.515,0,0,1,.231-.695,1.544,1.544,0,0,1,.369-.5,5.935,5.935,0,0,1,2.033-1.188c.911-.4,1.191-.582,1.352-.891l.078-.144.009-.908.006-.908-.2-.144a2.483,2.483,0,0,1-.885-1.211L54.4-476.4l-.009-1.26a6.04,6.04,0,0,1,.052-1.514,2.332,2.332,0,0,1,1.788-1.75A2.892,2.892,0,0,1,57.2-480.92Z" transform="translate(0 0)"/>
  </g>
</svg>
