<svg xmlns="http://www.w3.org/2000/svg" width="17.333" height="7.969" viewBox="0 0 17.333 7.969">
  <g id="arrow" transform="translate(17.333) rotate(90)">
    <path id="Path_67" data-name="Path 67" d="M2.008,1.875C.93,2.908.038,3.782.027,3.818A.39.39,0,0,0,.5,4.336c.046-.021.761-.68,1.583-1.47l1.5-1.438L3.6,9.271c.018,8.393.007,7.882.176,8.02a.55.55,0,0,0,.423,0c.169-.138.159.374.176-8.02l.018-7.843,1.5,1.438c.821.79,1.537,1.452,1.586,1.47a.379.379,0,0,0,.494-.363c0-.12-.025-.169-.176-.328C7.564,3.405,4.028.014,3.993,0,3.979,0,3.087.839,2.008,1.875Z"/>
  </g>
</svg>
