<svg xmlns="http://www.w3.org/2000/svg" width="30.129" height="30.129" viewBox="0 0 30.129 30.129">
  <g id="image_1_" data-name="image (1)" transform="translate(-40.785 481.575)">
    <path id="Path_74" data-name="Path 74" d="M51.486-481.53a11.777,11.777,0,0,0-10.672,10.779,11.259,11.259,0,0,0,1.116,5.851,11.985,11.985,0,0,0,8.454,6.446,9.671,9.671,0,0,0,2.328.147,9.671,9.671,0,0,0,2.328-.147,13.6,13.6,0,0,0,4.142-1.638l.479-.308.787.749c.438.415,2.512,2.427,4.621,4.473l3.834,3.731,1.006-.983,1.006-.983L66.4-457.845c-2.478-2.447-4.511-4.473-4.511-4.507a1.194,1.194,0,0,1,.233-.348,11.545,11.545,0,0,0,2.506-8.084,11.789,11.789,0,0,0-11.6-10.786A13.142,13.142,0,0,0,51.486-481.53Zm3.484,1.618a10.588,10.588,0,0,1,3.573,1.511,10.271,10.271,0,0,1,4.45,6.493,12.167,12.167,0,0,1,0,3.985,10.29,10.29,0,0,1-4.217,6.339,10.67,10.67,0,0,1-12.377-.174,10.418,10.418,0,0,1-4-6.372,11.875,11.875,0,0,1,.027-3.751,9.959,9.959,0,0,1,.9-2.534,10.443,10.443,0,0,1,7.6-5.583A12.762,12.762,0,0,1,54.97-479.912Z"/>
  </g>
</svg>
