<svg xmlns="http://www.w3.org/2000/svg" xmlns:xlink="http://www.w3.org/1999/xlink" width="512" height="449.5" viewBox="0 0 512 449.5">
  <defs>
    <linearGradient id="linear-gradient" x1="1" x2="0.403" y2="0.839" gradientUnits="objectBoundingBox">
      <stop offset="0" stop-color="#ca37dd"/>
      <stop offset="0.913" stop-color="#372792" stop-opacity="0.98"/>
      <stop offset="1" stop-color="#22227e"/>
    </linearGradient>
  </defs>
  <g id="cart" transform="translate(0 481)">
    <path id="Path_96" data-name="Path 96" d="M6.6-479.1C2-476,0-472.2,0-466s2,10,6.6,13.1c2.7,1.8,5.3,1.9,36.6,1.9H76.9l1.4,4.7c.8,2.7,17.1,59.6,36.2,126.6l34.8,121.8-4.1,8.7c-4.7,9.9-6.1,15.3-6.2,23.2,0,15.1,8.4,30.6,21.2,38.6,8.5,5.4,14.1,6.4,36,6.4l20.3.1-5.4,1.9a46.25,46.25,0,0,0-26.4,23.9c-3.1,6.4-3.2,7.1-3.2,19.1,0,12.2.1,12.7,3.4,19.5a48.042,48.042,0,0,0,21.6,21.6c6.8,3.3,7.3,3.4,19.5,3.4s12.7-.1,19.5-3.4a48.042,48.042,0,0,0,21.6-21.6c3.3-6.8,3.4-7.3,3.4-19.5,0-12-.1-12.7-3.2-19.1A46.25,46.25,0,0,0,240.9-119l-5.4-1.9h132l-5.4,1.9a46.25,46.25,0,0,0-26.4,23.9c-3.1,6.4-3.2,7.1-3.2,19.1,0,12.2.1,12.7,3.4,19.5a48.042,48.042,0,0,0,21.6,21.6c6.8,3.3,7.3,3.4,19.5,3.4s12.7-.1,19.5-3.4a48.042,48.042,0,0,0,21.6-21.6c3.3-6.8,3.4-7.3,3.4-19.5,0-12-.1-12.7-3.2-19.1A46.25,46.25,0,0,0,391.9-119l-5.4-1.9,28-.1c25.7,0,28.2-.2,30.9-1.9,4.6-3.1,6.6-6.9,6.6-13.1s-2-10-6.6-13.1c-2.8-1.8-7.2-1.9-130.9-1.9-84.7,0-129.5-.4-132.5-1.1-5.2-1.2-8.7-4-10.6-8.6-2-4.7-1.7-7.1,1.6-14l2.9-6.3H309.1c130.9,0,133.2,0,136.4-2a15.909,15.909,0,0,0,4.8-5.2c3.2-6.3,61.7-213.5,61.7-218.5a13.95,13.95,0,0,0-6.6-12.4c-2.8-1.8-8.5-1.9-195.1-1.9H118.1l-2-6.8c-1.1-3.7-4.5-15.5-7.5-26.2-5.3-18.4-5.9-19.7-9.6-23.3L95.1-481H52.3C12.1-481,9.3-480.9,6.6-479.1Z" fill="url(#linear-gradient)"/>
  </g>
</svg>
